<!-- by TradingView --><svg width="56" height="56" viewBox="0 0 56 56" xmlns="http://www.w3.org/2000/svg"><path fill="#F0F3FA" d="M0 0h56v56H0z"/><path fill-rule="evenodd" d="M49.9 23H6.1c-.6 0-1.1.46-1.1 1.03v7.94c0 .57.5 1.03 1.1 1.03h43.8c.6 0 1.1-.46 1.1-1.03v-7.94c0-.57-.5-1.03-1.1-1.03ZM6.04 22C4.9 22 4 22.85 4 23.9v8.2c0 1.05.91 1.9 2.04 1.9h43.92c1.13 0 2.04-.85 2.04-1.9v-8.2c0-1.05-.91-1.9-2.04-1.9H6.04Z" fill="#FD0100"/><path d="M39.56 24H35v8h3v-5h1c.15 0 .5.3.5.66V32h3v-5.47c0-1.4-1.32-2.53-2.94-2.53ZM15 24h6l-1.2 2.5H18v.5h2v2.46h-2V32h-3v-8ZM11 24H9.99L6 32h3.01L11 28.01V32h3v-8h-3Z" fill="#FD0100"/><path fill-rule="evenodd" d="M30 32a4 4 0 1 0 0-8 4 4 0 0 0 0 8Zm0-2.48a1.52 1.52 0 1 0 0-3.04 1.52 1.52 0 0 0 0 3.04Z" fill="#FD0100"/><path d="M25.55 29.44a1.54 1.54 0 1 1-.02-2.89l.74-2.34a4 4 0 1 0 .01 7.58l-.73-2.35ZM46.22 24h3.69l-1.23 2.36h-.97c-.14 0-.21.17-.11.27l1.77 1.76c1.36 1.35.37 3.61-1.59 3.61H44v-2.36h2.25c.14 0 .22-.17.12-.27l-1.76-1.78c-1.34-1.35-.34-3.59 1.6-3.59Z" fill="#FD0100"/></svg>