<!-- by TradingView --><svg width="56" height="56" viewBox="0 0 56 56" xmlns="http://www.w3.org/2000/svg"><path fill="#F0F3FA" d="M0 0h56v56H0z"/><path d="M44.23 28c0-1.13-.12-2.26-.35-3.36l.72-.29a17 17 0 1 1-1.86-4.82l-.73.28a16.31 16.31 0 1 0 2.22 8.2Zm-4.69 7.3a13.71 13.71 0 0 0 1.88-9.72l.74-.28a14.51 14.51 0 1 1-1.86-4.83l-.74.28a13.71 13.71 0 1 0-.02 14.54Z"/><path d="M29.94 27.99a2.06 2.06 0 0 1-2.44 2A2.04 2.04 0 0 1 26 27.2a2.05 2.05 0 0 1 3.78 0c.1.25.16.52.16.79Z" fill="#FFCA3B"/><path d="m50.74 18.63-22.98 9.03.26.68L51 19.3l-.26-.67Z" fill="#FFCA3B"/></svg>