<!-- by TradingView --><svg width="56" height="56" viewBox="0 0 56 56" xmlns="http://www.w3.org/2000/svg"><path fill="#F0F3FA" d="M0 0h56v56H0z"/><path d="M36.97 32.61a2.29 2.29 0 0 0-2.01-.3c-.47.13-1 .26-1.61.38a.45.45 0 0 0-.33.27c-.04.1-.06.26-.04.46.02.37.07.95.15 1.74a6.48 6.48 0 0 1-.2 2.52c.03.6.05 1.39.07 2.38l.1.46c0 .06.03.12.07.18.34.45.3.95.26 1.55 0 .06 0 .12.03.17.21.5.43.97.65 1.42.12.22.2.6.2.9a120.44 120.44 0 0 0 .03 2.39l.26.77a.07.07 0 0 1-.04.09h-.03c-.6.04-.89-.5-1.08-.99l-.96-2.48a.28.28 0 0 0-.08-.1 6.66 6.66 0 0 1-2.2-4c-.1-.54-.15-.9-.17-1.1a36.23 36.23 0 0 1-.2-4.4 4.26 4.26 0 0 0-.45-2.12 17.36 17.36 0 0 0-1.33-.04 2.21 2.21 0 0 1-1.8-.63 5.88 5.88 0 0 1-1.95-1.82 7.5 7.5 0 0 1-1.02-5.86 6.72 6.72 0 0 1 1.79-3.23c.36-.38.74-.81 1.15-1.29a.2.2 0 0 0 .05-.1c.13-1.13.28-2.18-.76-2.93a.45.45 0 0 0-.14-.07c-.64-.18-1.09-.37-1.68-.31a9.05 9.05 0 0 1-.83.31c-1.22.45-2.54 0-3.56-.77a.34.34 0 0 0-.14-.06c-1.67-.34-3.36.22-5-.3a.9.9 0 0 1-.38-.23c-.2-.2-.42-.37-.68-.51a.22.22 0 0 1-.1-.16.21.21 0 0 1 .05-.18c.03-.03.1-.07.22-.11l.24-.06c.56-.03 1.26-.03 2.1.03.55.03 1.35-.56 1.93-.95.48-.32 1-.44 1.55-.35a.4.4 0 0 0 .23-.03l.68-.33c.08-.03.14-.1.19-.16.12-.2.27-.38.44-.5.05-.04.1-.06.17-.06.13.01.28 0 .43-.04 1.12-.28 2.55.5 3.42 1.06.04.03.09.04.14.04.07 0 .2-.02.4-.06.5-.09.86.06.74.66a.09.09 0 0 0 .02.07.1.1 0 0 0 .07.04c.68.05 1.2.32 1.59.8.05.06.11.1.19.13 1.03.38 1.76 1.23 2.43 2 .05.06.11.1.18.13.44.2.5.44.7.94l.08.11c.1.1.28.13.37.23.16.18.24.43.22.75a.23.23 0 0 0 .12.2c.6.37.53.89.64 1.5.01.04.04.09.08.12.04.04.09.06.14.06.45.02.92.23 1.03.68.01.05.03.1.06.14l.45.6a.2.2 0 0 0 .15.07c.65.07 1.12.37 1.4.9.36.7.65 1.45.04 2.13-.4.44-.5.66-.93 1.25a.64.64 0 0 0-.06.12l-.15.34a4.83 4.83 0 0 0-.01 1.23c0 .06.05.11.12.17.17.13.33.4.36.55.11.77.1 1.26.7 1.6.52.31.85 1.52 1.07 1.97a.02.02 0 0 1-.02.03h-.01Z"/></svg>