<!-- by TradingView --><svg width="56" height="56" viewBox="0 0 56 56" xmlns="http://www.w3.org/2000/svg"><path fill="#F0F3FA" d="M0 0h56v56H0z"/><path fill="#BA8A34" d="M24 32h-5v-5h5z"/><path d="M32 24h5v5h-5v-5Z" fill="#F2CD1B"/><path d="M19 18.42c0-4.65 4.03-8.42 9-8.42s9 3.77 9 8.42V19h-5v-.58c0-1.86-2.01-3.42-4-3.42-1.99 0-4 1.56-4 3.42V32l-5-5v-8.58Z" fill="url(#a)"/><path d="M37 37.58c0 4.65-4.03 8.42-9 8.42s-9-3.77-9-8.42V37h5v.58c0 1.86 2.01 3.42 4 3.42 1.99 0 4-1.56 4-3.42V24l5 5v8.58Z" fill="url(#b)"/><path fill="#0070AF" d="M24 24v-5h5v5z"/><path fill="#17ABDD" d="M32 32v5h-5v-5z"/><path d="M37.58 19c4.65 0 8.42 4.03 8.42 9s-3.77 9-8.42 9H37v-5h.58c1.86 0 3.42-2.01 3.42-4 0-1.99-1.56-4-3.42-4H24l5-5h8.58Z" fill="url(#c)"/><path d="M18.42 37C13.77 37 10 32.97 10 28s3.77-9 8.42-9H19v5h-.58C16.56 24 15 26.01 15 28c0 1.99 1.56 4 3.42 4H32l-5 5h-8.58Z" fill="url(#d)"/><defs><linearGradient id="a" x1="28" y1="10" x2="28" y2="31" gradientUnits="userSpaceOnUse"><stop stop-color="#BE8F32"/><stop offset="1" stop-color="#DDB424"/></linearGradient><linearGradient id="b" x1="28" y1="25" x2="28" y2="46" gradientUnits="userSpaceOnUse"><stop stop-color="#D7AD27"/><stop offset="1" stop-color="#F2CD1B"/></linearGradient><linearGradient id="c" x1="46" y1="28" x2="24" y2="28" gradientUnits="userSpaceOnUse"><stop stop-color="#15A6D9"/><stop offset="1" stop-color="#0783BE"/></linearGradient><linearGradient id="d" x1="32" y1="28" x2="10" y2="28" gradientUnits="userSpaceOnUse"><stop stop-color="#0E95CC"/><stop offset="1" stop-color="#0071B0"/></linearGradient></defs></svg>