<!-- by TradingView --><svg width="56" height="56" viewBox="0 0 56 56" xmlns="http://www.w3.org/2000/svg"><path fill="#F0F3FA" d="M0 0h56v56H0z"/><path d="M20.21 24c2.06 0 3.41 1.28 3.42 5-.01 3.72-1.36 5-3.42 5H15V24h5.21ZM18 32h1.5c1.38 0 1.5-1.04 1.5-3s-.12-3-1.5-3H18v6ZM28 31.61c0 .22.18.4.4.4H32V34h-4.94c-.96 0-2.06-.88-2.06-1.99V24h3v7.61ZM13.7 24.43 13.5 26h-3.33c-.8 0-1.22.1-1.22.73s.5.7 2.4 1.37c1.9.67 2.65 1.3 2.65 3.17 0 2.61-2.19 2.73-3.96 2.73-1.41 0-3.2-.29-3.91-.43L6.29 32h3.42c.88 0 1.29-.15 1.29-.81 0-.67-1.3-1.1-2.05-1.37-.76-.27-2.95-.7-2.95-3.2S8.06 24 10.17 24c1.68 0 3.06.29 3.54.43ZM45 18c.07.13-3.01 1.79-7.02 3.8a1 1 0 0 1-.02.47c1.09.37 2.99 1.1 5.13 2 2.15.89 4.02 1.71 5.05 2.22a1 1 0 0 1 .6-.46c.03-3.59.12-6.03.26-6.03s.26 2.45.29 6.04a1 1 0 0 1 0 1.92C49.28 31.88 49.14 35 49 35c-.14 0-.24-3.11-.25-7.03a1 1 0 0 1-.44-.24c-.76.68-2.1 1.78-3.66 2.99a77.31 77.31 0 0 1-3.78 2.79 1 1 0 0 1 .11.68c4.01 2.02 7.09 3.68 7.02 3.8-.07.12-3.24-1.34-7.26-3.32A1 1 0 0 1 39 34c0-.07 0-.13.02-.2C35 31.8 31.93 30.14 32 30c.07-.11 3.24 1.35 7.26 3.33l.03-.03c-.32-.94-.86-2.89-1.4-5.15a73.42 73.42 0 0 1-1.1-5.17 1 1 0 0 1-.53-.31c-4.02 1.98-7.2 3.44-7.26 3.32-.07-.12 3-1.78 7.02-3.8a1 1 0 0 1 1.72-.86c4.02-1.98 7.2-3.44 7.26-3.32Zm-7.14 4.51a1 1 0 0 1-.8.49c.33.98.84 2.85 1.36 5.02.53 2.18.93 4.1 1.09 5.11a1 1 0 0 1 1.18.14c.76-.68 2.1-1.78 3.66-2.99a77.53 77.53 0 0 1 3.78-2.79 1 1 0 0 1-.1-.76c-1.08-.37-2.98-1.1-5.12-2a101.8 101.8 0 0 1-5.05-2.22Z" fill="#1867B2"/></svg>